<svg version="1" xmlns="http://www.w3.org/2000/svg" width="400" height="400" viewBox="0 0 300.000000 300.000000"><path d="M0 150v150h300V0H0v150zm95.7-41c12.8 17.9 23.6 32.6 24.1 32.7.4.1 9.5-12.2 20.2-27.3C167.1 76.2 167.3 76 171.5 76c6.5 0 6.5.1 6.5 40.3v35.8l-2.5 2.4c-2.9 3-4.5 3.1-7.8.4l-2.7-2-.2-25.5-.3-25.6-19.6 27.4c-10.7 15-20.7 27.9-22 28.7-5.3 3-6.5 1.8-27.5-27.8-11-15.4-20.2-28-20.6-28-.5-.1-.8 23.4-.8 52.1 0 47.1-.2 52.3-1.7 54-2 2.2-6.1 2.3-8.5.1-1.7-1.5-1.8-4.9-1.8-65.4 0-71.2-.4-67.3 6.8-66.7 3.5.3 4.3 1.3 26.9 32.8zm117.1-24.3c4.9 5.4 1.2 14.3-6 14.3-6.7 0-10.8-5.5-8.7-11.7 2-6.3 10-7.7 14.7-2.6zm26.6 19.4c5.4 3.6 9.2 8.7 10.7 14.3 2.1 7.6-2.7 18.6-6.9 15.9-1.1-.6-1.6-2.1-1.5-3.9.6-8.4.4-9.6-1.7-11.9-2-2.1-2.3-2.2-5.1-.8-3.8 1.9-8.3.9-11-2.5-4.3-5.5.3-14.2 7.5-14.2 2 0 5.1 1.2 8 3.1zm25.7 45.6c2.1 2.5 1.8 24.1-.5 31.8-5.6 18.9-18.8 34.5-37.1 43.6-11.4 5.6-18.6 6.9-40.7 6.9-18.2 0-18.7-.1-20.2-2.2-1.4-1.9-1.6-6.5-1.6-29.6v-27.3l2.5-2.5c1.9-1.9 3.1-2.3 4.8-1.8 4.7 1.4 4.7 1.3 4.7 27V220h12.9c7 0 15.3-.5 18.2-1 13.5-2.6 28.2-13.1 37.3-26.9 6.3-9.5 8.7-17.4 9.3-30.6.3-6.1 1-11.6 1.6-12.3 1.4-1.8 7.2-1.5 8.8.5z"/></svg>